<?xml version="1.0" encoding="utf-8"?>
<!-- Generator: Adobe Illustrator 16.0.0, SVG Export Plug-In . SVG Version: 6.00 Build 0)  -->
<!DOCTYPE svg PUBLIC "-//W3C//DTD SVG 1.1//EN" "http://www.w3.org/Graphics/SVG/1.1/DTD/svg11.dtd">
<svg version="1.1"
	 id="svg17738" sodipodi:docname="opensourcedesign.svg" inkscape:version="0.91 r13725" xmlns:dc="http://purl.org/dc/elements/1.1/" xmlns:cc="http://creativecommons.org/ns#" xmlns:rdf="http://www.w3.org/1999/02/22-rdf-syntax-ns#" xmlns:svg="http://www.w3.org/2000/svg" xmlns:sodipodi="http://sodipodi.sourceforge.net/DTD/sodipodi-0.dtd" xmlns:inkscape="http://www.inkscape.org/namespaces/inkscape"
	 xmlns="http://www.w3.org/2000/svg" xmlns:xlink="http://www.w3.org/1999/xlink" x="0px" y="0px" width="284.408px"
	 height="275.059px" viewBox="0 0 284.408 275.059" enable-background="new 0 0 284.408 275.059" xml:space="preserve">
<sodipodi:namedview  inkscape:window-maximized="1" inkscape:window-y="32" inkscape:window-x="0" inkscape:window-height="1014" inkscape:window-width="1918" fit-margin-bottom="0" inkscape:current-layer="layer1" inkscape:pageshadow="2" inkscape:document-units="px" inkscape:pageopacity="0.0" fit-margin-right="0" fit-margin-left="0" fit-margin-top="0" showgrid="false" inkscape:cy="281.53857" inkscape:cx="33.682428" inkscape:zoom="0.27890625" borderopacity="1.0" bordercolor="#666666" pagecolor="#ffffff" id="base">
	</sodipodi:namedview>
<g id="layer1" transform="translate(-298.21144,-397.31373)" inkscape:groupmode="layer" inkscape:label="Layer 1">
	<path id="path15897" inkscape:export-ydpi="90" inkscape:export-xdpi="90" inkscape:connector-curvature="0" d="M440.415,456.989
		c-44.459,0-80.5,36.041-80.5,80.5c0.04,33.324,20.608,63.179,51.732,75.088c0.118-0.401,4.169-11.001,9.156-23.951
		c3.393-8.811,5.55-14.387,6.951-17.891c0.7-1.752,1.212-2.986,1.594-3.848s0.634-1.35,0.817-1.611
		c-1.238-0.471-2.439-1.024-3.589-1.657c-0.575-0.316-1.138-0.652-1.686-1.009s-1.082-0.73-1.599-1.126
		c-0.518-0.395-1.02-0.81-1.504-1.243c-0.484-0.433-0.95-0.885-1.397-1.355s-0.875-0.961-1.281-1.469
		c-0.407-0.508-0.793-1.034-1.156-1.578c-0.423-0.708-0.824-1.428-1.202-2.157c-0.377-0.73-0.731-1.472-1.063-2.222
		c-0.665-1.501-1.239-3.04-1.726-4.611c-0.487-1.57-0.887-3.172-1.204-4.798c-0.316-1.625-0.55-3.272-0.702-4.937
		c-0.153-1.663-0.225-3.343-0.219-5.029c0.006-1.688,0.088-3.382,0.246-5.076c0.158-1.695,0.389-3.389,0.691-5.076
		c0.303-1.687,0.676-3.366,1.118-5.029c0.442-1.663,0.951-3.311,1.525-4.935c0.574-1.624,1.214-3.226,1.915-4.796
		c0.701-1.57,1.463-3.108,2.284-4.608c0.821-1.5,1.7-2.961,2.635-4.375c0.935-1.414,1.925-2.782,2.967-4.095
		c1.043-1.313,2.137-2.572,3.281-3.769s2.336-2.331,3.575-3.396s2.523-2.059,3.85-2.976c-0.145,1.543-0.245,3.115-0.276,4.699
		c-0.032,1.584,0.007,3.179,0.138,4.769c0.066,0.795,0.155,1.589,0.271,2.379c0.115,0.79,0.257,1.577,0.429,2.358
		c0.171,0.781,0.372,1.556,0.606,2.323c0.233,0.768,0.499,1.528,0.8,2.277c0.302,0.75,0.639,1.489,1.015,2.216
		c0.376,0.728,0.79,1.442,1.246,2.143c0.456,0.701,0.954,1.388,1.497,2.058c0.542,0.67,1.129,1.323,1.764,1.958
		c0.636,0.635,1.317,1.25,2.052,1.846c0.733,0.595,1.518,1.169,2.355,1.721c0.839,0.551,1.73,1.08,2.68,1.583
		c0.948,0.503,1.955,0.981,3.021,1.432c1.046,0.373,2.037,0.817,2.972,1.325c0.936,0.507,1.815,1.079,2.639,1.705
		c0.824,0.627,1.592,1.309,2.304,2.04s1.368,1.51,1.968,2.331c0.601,0.82,1.145,1.681,1.632,2.575
		c0.487,0.895,0.918,1.822,1.293,2.774c0.374,0.953,0.692,1.932,0.954,2.93c0.262,0.997,0.467,2.013,0.615,3.039
		c0.147,1.026,0.239,2.063,0.273,3.104c0.035,1.039,0.012,2.083-0.068,3.121c-0.079,1.038-0.216,2.073-0.41,3.095
		c-0.194,1.022-0.446,2.033-0.755,3.023c-0.31,0.991-0.676,1.963-1.101,2.907c-0.424,0.944-0.905,1.862-1.444,2.745
		c-0.54,0.883-1.138,1.731-1.793,2.538c-0.656,0.806-1.369,1.57-2.141,2.284c-0.69,0.729-1.415,1.405-2.172,2.03
		s-1.545,1.2-2.358,1.724c-0.814,0.523-1.654,0.997-2.516,1.422c-0.861,0.424-1.745,0.8-2.645,1.127
		c0.211,0.376,0.509,1.013,0.935,2.013c0.427,0.999,0.98,2.362,1.705,4.189c1.448,3.655,3.576,9.171,6.713,17.363
		c4.952,12.93,8.784,23.053,8.931,23.577c31.217-11.882,51.854-41.806,51.865-75.207
		C520.915,493.03,484.874,456.989,440.415,456.989L440.415,456.989z"/>
</g>
</svg>
