<?xml version="1.0" encoding="utf-8"?>
<!-- Generator: Adobe Illustrator 16.0.0, SVG Export Plug-In . SVG Version: 6.00 Build 0)  -->
<!DOCTYPE svg PUBLIC "-//W3C//DTD SVG 1.1//EN" "http://www.w3.org/Graphics/SVG/1.1/DTD/svg11.dtd">
<svg version="1.1" id="Layer_1" xmlns="http://www.w3.org/2000/svg" xmlns:xlink="http://www.w3.org/1999/xlink" x="0px" y="0px"
	 width="300px" height="300px" viewBox="0 0 300 300" enable-background="new 0 0 300 300" xml:space="preserve">
<path fill="#FF9C4A" d="M232.907,176.795c-3.199,0-9.142,0.781-9.238,0.258c-16.035-0.847-28.787-14.048-28.86-30.28
	c-2.865-0.683-5.845-1.082-8.921-1.082c-18.298,0-33.578,12.786-37.475,29.903c-0.631-0.581-1.252-1.181-1.852-1.812
	c-14.553-15.371-13.892-39.629,1.48-54.184c11.503-10.89,27.977-13.257,41.644-7.319c-1.118-2.282-2.398-4.501-3.758-6.687
	c-5.601-1.997-11.733-2.75-18.028-1.899c-9.093,1.227-16.999,5.549-22.833,11.742c5.825-9.563,15.745-16.522,27.707-18.136
	c2.361-0.319,4.697-0.384,6.994-0.277c-1.061-1.273-2.14-2.538-3.297-3.757c-29.105-30.741-77.625-32.066-108.367-2.961
	c-30.743,29.109-32.067,77.627-2.96,108.368c25,26.405,64.304,31.085,94.381,13.447c6.887,6.498,16.146,10.506,26.36,10.506
	c10.643,0,20.274-4.324,27.237-11.31c3.984,6.794,11.342,11.368,19.784,11.368c12.676,0,22.943-10.272,22.943-22.943
	C255.853,187.067,245.581,176.795,232.907,176.795z M245.092,195.362c-0.326-1.973-5.839-7.479-7.812-7.812
	c0.367-0.059,0.741-0.1,1.121-0.1c3.749,0,6.789,3.041,6.789,6.788C245.191,194.626,245.151,194.999,245.092,195.362z"/>
</svg>
